<svg width="247" height="16" viewBox="0 0 247 16" fill="none" xmlns="http://www.w3.org/2000/svg">
<path fill-rule="evenodd" clip-rule="evenodd" d="M82.0541 1.41141C54.9266 1.07986 27.6883 2.2915 1.43093 7.37921C0.962459 7.46963 0.767979 7.64747 0.729649 7.68816C0.505349 7.92928 0.481174 8.18547 0.509566 8.39645C0.526602 8.52455 0.641641 9.06556 1.27053 9.12132C1.70494 9.15899 4.78831 8.89527 5.97796 8.82745C11.5784 8.50947 17.1675 8.05586 22.7537 7.53142C35.4196 6.3469 48.0684 5.32213 60.7541 4.38928C67.8764 3.86484 75.0015 3.4308 82.1223 3.07515C99.2529 3.28764 116.341 4.11651 133.109 4.9725C126.444 5.40803 120.32 5.84958 115.242 6.13592C106.679 6.61816 98.1314 7.18781 89.5853 7.93831C85.1944 8.3226 80.8091 8.74006 76.4267 9.23285C75.9412 9.28861 74.8354 9.34587 74.3001 9.41369C74.073 9.44081 73.9084 9.48452 73.8345 9.51467C73.3717 9.70455 73.3135 10.0933 73.3079 10.2893C73.305 10.4083 73.3434 11.0578 74.1242 11.1844C110.428 17.1251 148.304 10.2139 184.738 15.9888C185.166 16.0566 185.566 15.7432 185.63 15.2881C185.694 14.8344 185.398 14.4095 184.97 14.3416C150.655 8.9028 115.06 14.7184 80.7013 10.449C83.7038 10.1401 86.7077 9.86127 89.7144 9.59754C98.2449 8.84855 106.777 8.28041 115.326 7.79817C123.929 7.31441 135.558 6.3695 147.732 5.77423C158.179 6.39211 168.62 7.08533 179.068 7.67307C183.476 7.92022 187.886 8.12518 192.292 8.37686C194.104 8.47933 198.764 8.90883 199.44 8.74909C199.965 8.624 200.092 8.22465 200.123 8.02422C200.155 7.80721 200.136 7.53744 199.897 7.27974C199.823 7.19836 199.602 7.02958 199.148 6.89094C186.861 3.15503 166.742 3.2138 147.899 4.1165C143.846 3.87538 139.793 3.64631 135.739 3.43985C126.457 2.96514 117.073 2.48891 107.636 2.11367C134.232 1.41591 160.842 1.61636 187.458 2.12121C198.634 2.3337 228.757 3.61467 240.62 4.74645C240.476 4.90468 240.39 5.12471 240.4 5.36432C240.42 5.82246 240.788 6.17811 241.221 6.15702C243.668 6.03645 245.084 5.88274 245.644 5.7245C245.994 5.62655 246.184 5.46982 246.272 5.36734C246.488 5.12019 246.527 4.85494 246.485 4.60327C246.458 4.44654 246.391 4.27474 246.238 4.1165C246.136 4.008 245.886 3.84223 245.46 3.72921C240.796 2.49797 200.793 0.709121 187.487 0.455941C152.324 -0.210162 117.176 -0.345781 82.0541 1.41141ZM189.636 6.5624C182.765 5.57228 174.71 5.22416 166.307 5.24677C170.588 5.5105 174.869 5.76821 179.152 6.00933C182.646 6.20675 186.141 6.37553 189.636 6.5624ZM49.647 3.56193C40.6324 4.26722 31.6277 5.02976 22.616 5.8737C21.5754 5.97015 20.5362 6.06509 19.4956 6.15852C29.4614 4.86249 39.5308 4.03815 49.647 3.56193Z" fill="#61C551"/>
</svg>
