<svg width="180" height="51" viewBox="0 0 180 51" fill="none" xmlns="http://www.w3.org/2000/svg">
<path d="M7.40625 14.2188C7.71875 13.5938 8.11458 12.8229 8.59375 11.9062C9.09375 10.9688 9.60417 10.0312 10.125 9.09375C10.6667 8.15625 11.1875 7.27083 11.6875 6.4375C12.2083 5.60417 12.6458 4.96875 13 4.53125C13.6042 3.80208 14.2292 3.28125 14.875 2.96875C15.5208 2.65625 16.1146 2.5 16.6562 2.5C17.1979 2.5 17.6562 2.61458 18.0312 2.84375C18.4271 3.07292 18.75 3.38542 19 3.78125C19.25 4.15625 19.4375 4.60417 19.5625 5.125C19.6875 5.625 19.75 6.16667 19.75 6.75C19.75 7.08333 19.7292 7.52083 19.6875 8.0625C19.6667 8.60417 19.6354 9.1875 19.5938 9.8125C19.5729 10.4375 19.5417 11.0833 19.5 11.75C19.4792 12.4167 19.4583 13.0417 19.4375 13.625C19.75 13 20.1042 12.3125 20.5 11.5625C20.8958 10.7917 21.2917 10.0312 21.6875 9.28125C22.1042 8.53125 22.5 7.83333 22.875 7.1875C23.25 6.52083 23.5938 5.97917 23.9062 5.5625C24.8021 4.33333 25.6354 3.51042 26.4062 3.09375C27.1979 2.67708 27.8958 2.46875 28.5 2.46875C29.2083 2.46875 29.7917 2.60417 30.25 2.875C30.7083 3.125 31.0625 3.45833 31.3125 3.875C31.5833 4.27083 31.7708 4.71875 31.875 5.21875C31.9792 5.71875 32.0312 6.19792 32.0312 6.65625C32.0312 7.36458 31.9792 8.10417 31.875 8.875C31.7708 9.64583 31.7188 10.5625 31.7188 11.625C31.7188 12.0625 31.7396 12.5 31.7812 12.9375C31.8229 13.375 31.9062 13.7604 32.0312 14.0938C32.1771 14.4271 32.3958 14.6979 32.6875 14.9062C32.9792 15.1146 33.375 15.2188 33.875 15.2188C34.4167 15.2188 34.9479 15.0833 35.4688 14.8125C35.9896 14.5208 36.4896 14.1458 36.9688 13.6875C37.4479 13.2292 37.8958 12.7083 38.3125 12.125C38.75 11.5417 39.1458 10.9583 39.5 10.375C39.8542 9.79167 40.1667 9.23958 40.4375 8.71875C40.7083 8.17708 40.9271 7.71875 41.0938 7.34375C41.1979 7.11458 41.3438 6.9375 41.5312 6.8125C41.7188 6.6875 41.9271 6.625 42.1562 6.625C42.5104 6.625 42.7917 6.76042 43 7.03125C43.2292 7.28125 43.3438 7.55208 43.3438 7.84375C43.3438 7.98958 43.3125 8.13542 43.25 8.28125C43.1667 8.44792 43 8.80208 42.75 9.34375C42.5 9.86458 42.1667 10.4688 41.75 11.1562C41.3333 11.8229 40.8438 12.5312 40.2812 13.2812C39.7396 14.0312 39.1354 14.7292 38.4688 15.375C37.8021 16 37.0833 16.5208 36.3125 16.9375C35.5417 17.3333 34.7292 17.5312 33.875 17.5312C32.9583 17.5312 32.2083 17.3646 31.625 17.0312C31.0625 16.7188 30.6042 16.2917 30.25 15.75C29.9167 15.2083 29.6875 14.5833 29.5625 13.875C29.4375 13.1667 29.375 12.4271 29.375 11.6562C29.375 10.6354 29.4271 9.69792 29.5312 8.84375C29.6354 7.96875 29.6875 7.29167 29.6875 6.8125C29.6875 6.29167 29.6354 5.89583 29.5312 5.625C29.4479 5.35417 29.3333 5.16667 29.1875 5.0625C29.0625 4.9375 28.9375 4.875 28.8125 4.875C28.6875 4.85417 28.5938 4.84375 28.5312 4.84375C28.0312 4.84375 27.5 5.125 26.9375 5.6875C26.3958 6.22917 25.8333 6.95833 25.25 7.875C24.6667 8.79167 24.0625 9.83333 23.4375 11C22.8333 12.1667 22.2188 13.3542 21.5938 14.5625C21.2396 15.2292 20.9375 15.7812 20.6875 16.2188C20.4583 16.6562 20.2292 17 20 17.25C19.7917 17.5 19.5833 17.6771 19.375 17.7812C19.1667 17.8854 18.9375 17.9375 18.6875 17.9375C18.1458 17.9375 17.7292 17.75 17.4375 17.375C17.1667 17 17.0312 16.5104 17.0312 15.9062C17.0312 15.5938 17.0417 15.1771 17.0625 14.6562C17.0833 14.1354 17.1042 13.5625 17.125 12.9375C17.1458 12.3125 17.1771 11.6667 17.2188 11C17.2604 10.3333 17.2917 9.69792 17.3125 9.09375C17.3333 8.46875 17.3542 7.91667 17.375 7.4375C17.3958 6.95833 17.4062 6.59375 17.4062 6.34375C17.4062 5.80208 17.3125 5.41667 17.125 5.1875C16.9375 4.9375 16.7188 4.8125 16.4688 4.8125C16.2396 4.8125 15.9792 4.89583 15.6875 5.0625C15.4167 5.22917 15.0938 5.55208 14.7188 6.03125C14.4271 6.40625 14.0521 6.95833 13.5938 7.6875C13.1562 8.39583 12.6875 9.1875 12.1875 10.0625C11.6875 10.9375 11.1875 11.8333 10.6875 12.75C10.2083 13.6667 9.79167 14.4896 9.4375 15.2188C9 16.0938 8.5625 16.6875 8.125 17C7.6875 17.3333 7.26042 17.5 6.84375 17.5C6.23958 17.5 5.79167 17.3229 5.5 16.9688C5.20833 16.5938 5.0625 16.1042 5.0625 15.5C5.0625 15.4375 5.07292 15.0625 5.09375 14.375C5.13542 13.6875 5.17708 12.8542 5.21875 11.875C5.26042 10.875 5.30208 9.8125 5.34375 8.6875C5.40625 7.5625 5.45833 6.51042 5.5 5.53125C5.52083 5.01042 5.5 4.53125 5.4375 4.09375C5.375 3.65625 5.29167 3.39583 5.1875 3.3125C5.02083 3.35417 4.6875 3.73958 4.1875 4.46875C3.70833 5.19792 3.09375 6.46875 2.34375 8.28125C2.23958 8.51042 2.08333 8.6875 1.875 8.8125C1.66667 8.9375 1.44792 9 1.21875 9C0.864583 9 0.583333 8.88542 0.375 8.65625C0.166667 8.40625 0.0625 8.125 0.0625 7.8125C0.0625 7.66667 0.09375 7.51042 0.15625 7.34375C1.09375 5.11458 1.98958 3.47917 2.84375 2.4375C3.69792 1.375 4.53125 0.84375 5.34375 0.84375C5.82292 0.84375 6.21875 0.958333 6.53125 1.1875C6.86458 1.39583 7.125 1.67708 7.3125 2.03125C7.5 2.36458 7.63542 2.75 7.71875 3.1875C7.80208 3.625 7.84375 4.05208 7.84375 4.46875C7.84375 6.32292 7.79167 8.02083 7.6875 9.5625C7.60417 11.1042 7.51042 12.6562 7.40625 14.2188ZM44.875 13.5625C45.3125 14.1667 45.875 14.6562 46.5625 15.0312C47.25 15.3854 48.0938 15.5625 49.0938 15.5625C50.1146 15.5625 51.0417 15.3229 51.875 14.8438C52.7083 14.3438 53.4688 13.6979 54.1562 12.9062C54.8438 12.1146 55.4583 11.2292 56 10.25C56.5417 9.27083 57.0312 8.29167 57.4688 7.3125C57.5729 7.08333 57.7188 6.91667 57.9062 6.8125C58.0938 6.6875 58.3021 6.625 58.5312 6.625C58.8854 6.625 59.1667 6.75 59.375 7C59.6042 7.25 59.7188 7.52083 59.7188 7.8125C59.7188 7.91667 59.7083 8.01042 59.6875 8.09375C59.6667 8.15625 59.6354 8.22917 59.5938 8.3125C58.1562 11.4792 56.5833 13.8646 54.875 15.4688C53.1875 17.0729 51.2708 17.8958 49.125 17.9375C47.75 17.9375 46.5625 17.6667 45.5625 17.125C44.5625 16.6042 43.7396 15.9271 43.0938 15.0938C42.4479 14.2396 41.9688 13.2812 41.6562 12.2188C41.3438 11.1562 41.1875 10.0938 41.1875 9.03125C41.1875 7.96875 41.3125 6.98958 41.5625 6.09375C41.8333 5.19792 42.2083 4.41667 42.6875 3.75C43.1875 3.08333 43.7708 2.5625 44.4375 2.1875C45.125 1.8125 45.875 1.625 46.6875 1.625C47.1667 1.625 47.6354 1.72917 48.0938 1.9375C48.5729 2.125 49 2.40625 49.375 2.78125C49.75 3.13542 50.0521 3.57292 50.2812 4.09375C50.5104 4.61458 50.625 5.20833 50.625 5.875C50.625 6.72917 50.4792 7.53125 50.1875 8.28125C49.8958 9.03125 49.4896 9.72917 48.9688 10.375C48.4688 11.0208 47.8646 11.6146 47.1562 12.1562C46.4479 12.6979 45.6875 13.1667 44.875 13.5625ZM43.9375 11.5312C44.5833 11.2604 45.1667 10.9167 45.6875 10.5C46.2292 10.0833 46.6875 9.625 47.0625 9.125C47.4375 8.625 47.7292 8.10417 47.9375 7.5625C48.1458 7 48.25 6.4375 48.25 5.875C48.25 5.25 48.0938 4.78125 47.7812 4.46875C47.4688 4.13542 47.1042 3.96875 46.6875 3.96875C46.125 3.96875 45.6458 4.125 45.25 4.4375C44.8542 4.75 44.5312 5.15625 44.2812 5.65625C44.0312 6.15625 43.8438 6.71875 43.7188 7.34375C43.6146 7.94792 43.5625 8.55208 43.5625 9.15625C43.5625 9.53125 43.5938 9.92708 43.6562 10.3438C43.7396 10.7604 43.8333 11.1562 43.9375 11.5312ZM64.7188 14.2188C65.0312 13.5938 65.4271 12.8229 65.9062 11.9062C66.4062 10.9688 66.9167 10.0312 67.4375 9.09375C67.9792 8.15625 68.5 7.27083 69 6.4375C69.5208 5.60417 69.9583 4.96875 70.3125 4.53125C70.9167 3.80208 71.5417 3.28125 72.1875 2.96875C72.8333 2.65625 73.4271 2.5 73.9688 2.5C74.5104 2.5 74.9688 2.61458 75.3438 2.84375C75.7396 3.07292 76.0625 3.38542 76.3125 3.78125C76.5625 4.15625 76.75 4.60417 76.875 5.125C77 5.625 77.0625 6.16667 77.0625 6.75C77.0625 7.08333 77.0417 7.52083 77 8.0625C76.9792 8.60417 76.9479 9.1875 76.9062 9.8125C76.8854 10.4375 76.8542 11.0833 76.8125 11.75C76.7917 12.4167 76.7708 13.0417 76.75 13.625C77.0625 13 77.4167 12.3125 77.8125 11.5625C78.2083 10.7917 78.6042 10.0312 79 9.28125C79.4167 8.53125 79.8125 7.83333 80.1875 7.1875C80.5625 6.52083 80.9062 5.97917 81.2188 5.5625C82.1146 4.33333 82.9479 3.51042 83.7188 3.09375C84.5104 2.67708 85.2083 2.46875 85.8125 2.46875C86.5208 2.46875 87.1042 2.60417 87.5625 2.875C88.0208 3.125 88.375 3.45833 88.625 3.875C88.8958 4.27083 89.0833 4.71875 89.1875 5.21875C89.2917 5.71875 89.3438 6.19792 89.3438 6.65625C89.3438 7.36458 89.2917 8.10417 89.1875 8.875C89.0833 9.64583 89.0312 10.5625 89.0312 11.625C89.0312 12.0625 89.0521 12.5 89.0938 12.9375C89.1354 13.375 89.2188 13.7604 89.3438 14.0938C89.4896 14.4271 89.7083 14.6979 90 14.9062C90.2917 15.1146 90.6875 15.2188 91.1875 15.2188C91.7292 15.2188 92.2604 15.0833 92.7812 14.8125C93.3021 14.5208 93.8021 14.1458 94.2812 13.6875C94.7604 13.2292 95.2083 12.7083 95.625 12.125C96.0625 11.5417 96.4583 10.9583 96.8125 10.375C97.1667 9.79167 97.4792 9.23958 97.75 8.71875C98.0208 8.17708 98.2396 7.71875 98.4062 7.34375C98.5104 7.11458 98.6562 6.9375 98.8438 6.8125C99.0312 6.6875 99.2396 6.625 99.4688 6.625C99.8229 6.625 100.104 6.76042 100.312 7.03125C100.542 7.28125 100.656 7.55208 100.656 7.84375C100.656 7.98958 100.625 8.13542 100.562 8.28125C100.479 8.44792 100.312 8.80208 100.062 9.34375C99.8125 9.86458 99.4792 10.4688 99.0625 11.1562C98.6458 11.8229 98.1562 12.5312 97.5938 13.2812C97.0521 14.0312 96.4479 14.7292 95.7812 15.375C95.1146 16 94.3958 16.5208 93.625 16.9375C92.8542 17.3333 92.0417 17.5312 91.1875 17.5312C90.2708 17.5312 89.5208 17.3646 88.9375 17.0312C88.375 16.7188 87.9167 16.2917 87.5625 15.75C87.2292 15.2083 87 14.5833 86.875 13.875C86.75 13.1667 86.6875 12.4271 86.6875 11.6562C86.6875 10.6354 86.7396 9.69792 86.8438 8.84375C86.9479 7.96875 87 7.29167 87 6.8125C87 6.29167 86.9479 5.89583 86.8438 5.625C86.7604 5.35417 86.6458 5.16667 86.5 5.0625C86.375 4.9375 86.25 4.875 86.125 4.875C86 4.85417 85.9062 4.84375 85.8438 4.84375C85.3438 4.84375 84.8125 5.125 84.25 5.6875C83.7083 6.22917 83.1458 6.95833 82.5625 7.875C81.9792 8.79167 81.375 9.83333 80.75 11C80.1458 12.1667 79.5312 13.3542 78.9062 14.5625C78.5521 15.2292 78.25 15.7812 78 16.2188C77.7708 16.6562 77.5417 17 77.3125 17.25C77.1042 17.5 76.8958 17.6771 76.6875 17.7812C76.4792 17.8854 76.25 17.9375 76 17.9375C75.4583 17.9375 75.0417 17.75 74.75 17.375C74.4792 17 74.3438 16.5104 74.3438 15.9062C74.3438 15.5938 74.3542 15.1771 74.375 14.6562C74.3958 14.1354 74.4167 13.5625 74.4375 12.9375C74.4583 12.3125 74.4896 11.6667 74.5312 11C74.5729 10.3333 74.6042 9.69792 74.625 9.09375C74.6458 8.46875 74.6667 7.91667 74.6875 7.4375C74.7083 6.95833 74.7188 6.59375 74.7188 6.34375C74.7188 5.80208 74.625 5.41667 74.4375 5.1875C74.25 4.9375 74.0312 4.8125 73.7812 4.8125C73.5521 4.8125 73.2917 4.89583 73 5.0625C72.7292 5.22917 72.4062 5.55208 72.0312 6.03125C71.7396 6.40625 71.3646 6.95833 70.9062 7.6875C70.4688 8.39583 70 9.1875 69.5 10.0625C69 10.9375 68.5 11.8333 68 12.75C67.5208 13.6667 67.1042 14.4896 66.75 15.2188C66.3125 16.0938 65.875 16.6875 65.4375 17C65 17.3333 64.5729 17.5 64.1562 17.5C63.5521 17.5 63.1042 17.3229 62.8125 16.9688C62.5208 16.5938 62.375 16.1042 62.375 15.5C62.375 15.4375 62.3854 15.0625 62.4062 14.375C62.4479 13.6875 62.4896 12.8542 62.5312 11.875C62.5729 10.875 62.6146 9.8125 62.6562 8.6875C62.7188 7.5625 62.7708 6.51042 62.8125 5.53125C62.8333 5.01042 62.8125 4.53125 62.75 4.09375C62.6875 3.65625 62.6042 3.39583 62.5 3.3125C62.3333 3.35417 62 3.73958 61.5 4.46875C61.0208 5.19792 60.4062 6.46875 59.6562 8.28125C59.5521 8.51042 59.3958 8.6875 59.1875 8.8125C58.9792 8.9375 58.7604 9 58.5312 9C58.1771 9 57.8958 8.88542 57.6875 8.65625C57.4792 8.40625 57.375 8.125 57.375 7.8125C57.375 7.66667 57.4062 7.51042 57.4688 7.34375C58.4062 5.11458 59.3021 3.47917 60.1562 2.4375C61.0104 1.375 61.8438 0.84375 62.6562 0.84375C63.1354 0.84375 63.5312 0.958333 63.8438 1.1875C64.1771 1.39583 64.4375 1.67708 64.625 2.03125C64.8125 2.36458 64.9479 2.75 65.0312 3.1875C65.1146 3.625 65.1562 4.05208 65.1562 4.46875C65.1562 6.32292 65.1042 8.02083 65 9.5625C64.9167 11.1042 64.8229 12.6562 64.7188 14.2188ZM112.844 13.5625C112.323 13.5625 111.865 13.5208 111.469 13.4375C111.156 14.0625 110.781 14.6458 110.344 15.1875C109.906 15.7083 109.396 16.1667 108.812 16.5625C108.25 16.9583 107.615 17.2708 106.906 17.5C106.198 17.7292 105.427 17.8438 104.594 17.8438C103.615 17.8438 102.719 17.6667 101.906 17.3125C101.094 16.9792 100.385 16.5104 99.7812 15.9062C99.1771 15.2812 98.7083 14.5417 98.375 13.6875C98.0417 12.8125 97.875 11.8542 97.875 10.8125C97.875 9.47917 98.1146 8.32292 98.5938 7.34375C99.0729 6.34375 99.625 5.52083 100.25 4.875C100.875 4.20833 101.5 3.71875 102.125 3.40625C102.75 3.07292 103.219 2.90625 103.531 2.90625C103.885 2.90625 104.146 3 104.312 3.1875C104.5 3.375 104.594 3.625 104.594 3.9375C104.594 4.29167 104.479 4.5625 104.25 4.75C104.042 4.91667 103.771 5.08333 103.438 5.25C103.104 5.41667 102.75 5.65625 102.375 5.96875C102 6.26042 101.646 6.63542 101.312 7.09375C101 7.55208 100.74 8.09375 100.531 8.71875C100.323 9.34375 100.219 10.0417 100.219 10.8125C100.219 11.5 100.323 12.1458 100.531 12.75C100.74 13.3333 101.042 13.8438 101.438 14.2812C101.833 14.6979 102.302 15.0312 102.844 15.2812C103.385 15.5104 103.99 15.625 104.656 15.625C105.844 15.625 106.823 15.3542 107.594 14.8125C108.385 14.25 108.99 13.5417 109.406 12.6875C108.177 12.0417 107.167 11.125 106.375 9.9375C105.583 8.75 105.188 7.41667 105.188 5.9375C105.188 4.75 105.469 3.78125 106.031 3.03125C106.615 2.28125 107.375 1.90625 108.312 1.90625C108.875 1.90625 109.406 2.04167 109.906 2.3125C110.406 2.58333 110.844 3.01042 111.219 3.59375C111.615 4.17708 111.927 4.92708 112.156 5.84375C112.385 6.76042 112.5 7.85417 112.5 9.125C112.5 9.79167 112.417 10.4896 112.25 11.2188C112.375 11.2396 112.5 11.25 112.625 11.25C112.75 11.25 112.885 11.25 113.031 11.25C113.74 11.25 114.375 11.1667 114.938 11C115.5 10.8333 116.01 10.5833 116.469 10.25C116.927 9.91667 117.333 9.48958 117.688 8.96875C118.062 8.44792 118.417 7.84375 118.75 7.15625C118.812 7.03125 118.948 6.91667 119.156 6.8125C119.365 6.6875 119.573 6.625 119.781 6.625C120.052 6.625 120.302 6.73958 120.531 6.96875C120.781 7.17708 120.906 7.45833 120.906 7.8125C120.906 7.97917 120.865 8.16667 120.781 8.375C120.698 8.5625 120.615 8.73958 120.531 8.90625C120.177 9.53125 119.76 10.1354 119.281 10.7188C118.823 11.2812 118.271 11.7812 117.625 12.2188C117 12.6354 116.292 12.9688 115.5 13.2188C114.708 13.4688 113.823 13.5833 112.844 13.5625ZM107.5 5.6875C107.5 6.08333 107.552 6.5 107.656 6.9375C107.76 7.375 107.917 7.8125 108.125 8.25C108.354 8.66667 108.625 9.07292 108.938 9.46875C109.271 9.84375 109.656 10.1667 110.094 10.4375C110.156 10 110.188 9.57292 110.188 9.15625C110.188 8.59375 110.146 8.02083 110.062 7.4375C109.979 6.85417 109.854 6.32292 109.688 5.84375C109.542 5.34375 109.354 4.94792 109.125 4.65625C108.896 4.34375 108.625 4.1875 108.312 4.1875C108.188 4.1875 108.021 4.28125 107.812 4.46875C107.604 4.65625 107.5 5.0625 107.5 5.6875ZM130 20.1875C130.875 19.0417 131.719 17.8958 132.531 16.75C133.344 15.6042 134.094 14.4792 134.781 13.375C135.49 12.2708 136.125 11.2083 136.688 10.1875C137.271 9.16667 137.76 8.21875 138.156 7.34375C138.26 7.11458 138.396 6.94792 138.562 6.84375C138.75 6.71875 138.958 6.65625 139.188 6.65625C139.542 6.65625 139.833 6.78125 140.062 7.03125C140.292 7.26042 140.406 7.53125 140.406 7.84375C140.406 7.98958 140.375 8.13542 140.312 8.28125C139.854 9.30208 139.292 10.4062 138.625 11.5938C137.958 12.7604 137.208 13.9792 136.375 15.25C135.562 16.5208 134.677 17.8125 133.719 19.125C132.781 20.4375 131.802 21.7292 130.781 23C131.677 24.0417 132.51 25.3333 133.281 26.875C134.073 28.4167 134.75 30.0729 135.312 31.8438C135.875 33.6146 136.312 35.4167 136.625 37.25C136.958 39.0833 137.125 40.8021 137.125 42.4062C137.125 44.2188 136.948 45.6667 136.594 46.75C136.24 47.8333 135.812 48.6667 135.312 49.25C134.812 49.8333 134.292 50.2083 133.75 50.375C133.208 50.5625 132.75 50.6562 132.375 50.6562C131.229 50.6562 130.323 50.2917 129.656 49.5625C129.01 48.8542 128.51 47.8021 128.156 46.4062C127.823 45.0312 127.604 43.3229 127.5 41.2812C127.417 39.2396 127.375 36.8854 127.375 34.2188C127.375 32.4688 127.385 30.6979 127.406 28.9062C127.448 27.1146 127.5 25.3542 127.562 23.625C127.625 21.8958 127.698 20.2292 127.781 18.625C127.865 17.0417 127.958 15.5729 128.062 14.2188C127.396 15.2188 126.646 15.9896 125.812 16.5312C125 17.0729 124.094 17.3438 123.094 17.3438C122.344 17.3438 121.656 17.1979 121.031 16.9062C120.427 16.6146 119.906 16.2188 119.469 15.7188C119.031 15.1979 118.698 14.5938 118.469 13.9062C118.24 13.2188 118.125 12.4792 118.125 11.6875C118.125 10.0625 118.396 8.63542 118.938 7.40625C119.5 6.15625 120.208 5.11458 121.062 4.28125C121.917 3.44792 122.854 2.82292 123.875 2.40625C124.917 1.98958 125.917 1.78125 126.875 1.78125C127.521 1.78125 128.115 1.875 128.656 2.0625C129.198 2.22917 129.656 2.41667 130.031 2.625C130.406 2.83333 130.698 3.03125 130.906 3.21875C131.135 3.38542 131.26 3.47917 131.281 3.5C131.51 3.70833 131.625 3.98958 131.625 4.34375C131.625 4.65625 131.51 4.9375 131.281 5.1875C131.073 5.41667 130.792 5.53125 130.438 5.53125C130.25 5.53125 130.094 5.5 129.969 5.4375C129.865 5.375 129.75 5.29167 129.625 5.1875C129.417 5.02083 129.104 4.80208 128.688 4.53125C128.292 4.26042 127.698 4.125 126.906 4.125C126.281 4.125 125.594 4.27083 124.844 4.5625C124.094 4.83333 123.396 5.27083 122.75 5.875C122.104 6.47917 121.562 7.26042 121.125 8.21875C120.688 9.15625 120.469 10.2917 120.469 11.625C120.469 12.5833 120.677 13.3854 121.094 14.0312C121.531 14.6562 122.219 14.9688 123.156 14.9688C123.615 14.9688 124.115 14.8229 124.656 14.5312C125.219 14.2188 125.75 13.7604 126.25 13.1562C126.771 12.5521 127.229 11.8021 127.625 10.9062C128.042 10.0104 128.333 8.96875 128.5 7.78125C128.542 7.48958 128.677 7.25 128.906 7.0625C129.135 6.85417 129.396 6.75 129.688 6.75C130.021 6.75 130.292 6.875 130.5 7.125C130.729 7.35417 130.844 7.625 130.844 7.9375C130.844 7.97917 130.812 8.34375 130.75 9.03125C130.708 9.69792 130.646 10.5938 130.562 11.7188C130.479 12.8229 130.385 14.1042 130.281 15.5625C130.177 17.0208 130.083 18.5625 130 20.1875ZM129.781 25.5C129.76 26.1458 129.74 26.7708 129.719 27.375C129.719 27.9792 129.719 28.5729 129.719 29.1562C129.719 31.8438 129.729 34.3438 129.75 36.6562C129.771 38.9896 129.854 41.0104 130 42.7188C130.167 44.4479 130.427 45.8021 130.781 46.7812C131.156 47.7812 131.677 48.2812 132.344 48.2812C132.885 48.2812 133.312 48.0417 133.625 47.5625C133.958 47.1042 134.208 46.5521 134.375 45.9062C134.542 45.2604 134.646 44.5938 134.688 43.9062C134.75 43.2396 134.781 42.6979 134.781 42.2812C134.781 40.8854 134.646 39.4062 134.375 37.8438C134.125 36.2812 133.771 34.7396 133.312 33.2188C132.875 31.6979 132.344 30.2604 131.719 28.9062C131.115 27.5729 130.469 26.4375 129.781 25.5ZM148.562 13.5C147.833 14.6875 146.979 15.625 146 16.3125C145.042 17 144.073 17.3438 143.094 17.3438C142.302 17.3438 141.594 17.1979 140.969 16.9062C140.344 16.6146 139.802 16.2083 139.344 15.6875C138.885 15.1458 138.531 14.5 138.281 13.75C138.052 13 137.938 12.1562 137.938 11.2188C137.938 9.76042 138.073 8.46875 138.344 7.34375C138.635 6.21875 138.948 5.28125 139.281 4.53125C139.615 3.76042 139.927 3.17708 140.219 2.78125C140.51 2.38542 140.656 2.1875 140.656 2.1875C140.76 2.0625 140.885 1.96875 141.031 1.90625C141.198 1.84375 141.365 1.8125 141.531 1.8125C141.865 1.8125 142.135 1.9375 142.344 2.1875C142.573 2.41667 142.688 2.6875 142.688 3C142.688 3.125 142.656 3.25 142.594 3.375C142.552 3.5 142.5 3.625 142.438 3.75C142.333 3.9375 142.167 4.22917 141.938 4.625C141.708 5 141.469 5.5 141.219 6.125C140.969 6.75 140.75 7.48958 140.562 8.34375C140.375 9.17708 140.281 10.1354 140.281 11.2188C140.281 12.4479 140.521 13.3854 141 14.0312C141.5 14.6562 142.198 14.9688 143.094 14.9688C143.469 14.9688 143.896 14.8542 144.375 14.625C144.875 14.375 145.354 14 145.812 13.5C146.292 13 146.708 12.3646 147.062 11.5938C147.417 10.8229 147.646 9.91667 147.75 8.875L148.219 3.5C148.26 3.1875 148.396 2.92708 148.625 2.71875C148.854 2.51042 149.125 2.40625 149.438 2.40625C149.792 2.40625 150.073 2.54167 150.281 2.8125C150.49 3.0625 150.594 3.35417 150.594 3.6875L150.188 8.875C150.146 9.3125 150.156 9.88542 150.219 10.5938C150.302 11.3021 150.458 12 150.688 12.6875C150.917 13.375 151.26 13.9688 151.719 14.4688C152.177 14.9479 152.781 15.1875 153.531 15.1875C154.073 15.1875 154.604 15.0521 155.125 14.7812C155.646 14.4896 156.146 14.1146 156.625 13.6562C157.104 13.1979 157.542 12.6875 157.938 12.125C158.354 11.5417 158.729 10.9583 159.062 10.375C159.417 9.79167 159.719 9.23958 159.969 8.71875C160.219 8.17708 160.427 7.71875 160.594 7.34375C160.698 7.11458 160.844 6.9375 161.031 6.8125C161.219 6.6875 161.427 6.625 161.656 6.625C162.031 6.625 162.323 6.75 162.531 7C162.74 7.25 162.844 7.52083 162.844 7.8125C162.844 7.97917 162.812 8.13542 162.75 8.28125C162.667 8.44792 162.5 8.80208 162.25 9.34375C162.021 9.86458 161.708 10.4688 161.312 11.1562C160.938 11.8229 160.479 12.5312 159.938 13.2812C159.396 14.0312 158.792 14.7292 158.125 15.375C157.458 16 156.729 16.5208 155.938 16.9375C155.167 17.3333 154.333 17.5312 153.438 17.5312C152.208 17.5312 151.188 17.1875 150.375 16.5C149.562 15.7917 148.958 14.7917 148.562 13.5ZM164.375 13.5625C164.812 14.1667 165.375 14.6562 166.062 15.0312C166.75 15.3854 167.594 15.5625 168.594 15.5625C169.615 15.5625 170.542 15.3229 171.375 14.8438C172.208 14.3438 172.969 13.6979 173.656 12.9062C174.344 12.1146 174.958 11.2292 175.5 10.25C176.042 9.27083 176.531 8.29167 176.969 7.3125C177.073 7.08333 177.219 6.91667 177.406 6.8125C177.594 6.6875 177.802 6.625 178.031 6.625C178.385 6.625 178.667 6.75 178.875 7C179.104 7.25 179.219 7.52083 179.219 7.8125C179.219 7.91667 179.208 8.01042 179.188 8.09375C179.167 8.15625 179.135 8.22917 179.094 8.3125C177.656 11.4792 176.083 13.8646 174.375 15.4688C172.688 17.0729 170.771 17.8958 168.625 17.9375C167.25 17.9375 166.062 17.6667 165.062 17.125C164.062 16.6042 163.24 15.9271 162.594 15.0938C161.948 14.2396 161.469 13.2812 161.156 12.2188C160.844 11.1562 160.688 10.0938 160.688 9.03125C160.688 7.96875 160.812 6.98958 161.062 6.09375C161.333 5.19792 161.708 4.41667 162.188 3.75C162.688 3.08333 163.271 2.5625 163.938 2.1875C164.625 1.8125 165.375 1.625 166.188 1.625C166.667 1.625 167.135 1.72917 167.594 1.9375C168.073 2.125 168.5 2.40625 168.875 2.78125C169.25 3.13542 169.552 3.57292 169.781 4.09375C170.01 4.61458 170.125 5.20833 170.125 5.875C170.125 6.72917 169.979 7.53125 169.688 8.28125C169.396 9.03125 168.99 9.72917 168.469 10.375C167.969 11.0208 167.365 11.6146 166.656 12.1562C165.948 12.6979 165.188 13.1667 164.375 13.5625ZM163.438 11.5312C164.083 11.2604 164.667 10.9167 165.188 10.5C165.729 10.0833 166.188 9.625 166.562 9.125C166.938 8.625 167.229 8.10417 167.438 7.5625C167.646 7 167.75 6.4375 167.75 5.875C167.75 5.25 167.594 4.78125 167.281 4.46875C166.969 4.13542 166.604 3.96875 166.188 3.96875C165.625 3.96875 165.146 4.125 164.75 4.4375C164.354 4.75 164.031 5.15625 163.781 5.65625C163.531 6.15625 163.344 6.71875 163.219 7.34375C163.115 7.94792 163.062 8.55208 163.062 9.15625C163.062 9.53125 163.094 9.92708 163.156 10.3438C163.24 10.7604 163.333 11.1562 163.438 11.5312Z" fill="black"/>
</svg>
