<svg width="225" height="40" viewBox="0 0 225 40" fill="none" xmlns="http://www.w3.org/2000/svg">
<g clip-path="url(#clip0_5_8)">
<g style="mix-blend-mode:multiply">
<circle cx="20" cy="20" r="20" fill="#323832"/>
</g>
<g style="mix-blend-mode:multiply">
<circle cx="43" cy="20" r="20" fill="#F4C64A"/>
</g>
<path d="M74.517 28.5V11.0455H81.4034C82.7273 11.0455 83.8551 11.2983 84.7869 11.804C85.7188 12.304 86.429 13 86.9176 13.892C87.4119 14.7784 87.6591 15.8011 87.6591 16.9602C87.6591 18.1193 87.4091 19.142 86.9091 20.0284C86.4091 20.9148 85.6847 21.6051 84.7358 22.0994C83.7926 22.5937 82.6506 22.8409 81.3097 22.8409H76.9205V19.8835H80.7131C81.4233 19.8835 82.0085 19.7614 82.4688 19.517C82.9347 19.267 83.2813 18.9233 83.5085 18.4858C83.7415 18.0426 83.858 17.5341 83.858 16.9602C83.858 16.3807 83.7415 15.875 83.5085 15.4432C83.2813 15.0057 82.9347 14.6676 82.4688 14.429C82.0028 14.1847 81.4119 14.0625 80.696 14.0625H78.2074V28.5H74.517ZM89.9879 28.5V15.4091H93.5078V17.6932H93.6442C93.8828 16.8807 94.2834 16.267 94.8459 15.8523C95.4084 15.4318 96.0561 15.2216 96.7891 15.2216C96.9709 15.2216 97.1669 15.233 97.3771 15.2557C97.5874 15.2784 97.772 15.3097 97.9311 15.3494V18.571C97.7607 18.5199 97.5249 18.4744 97.2237 18.4347C96.9226 18.3949 96.647 18.375 96.397 18.375C95.8629 18.375 95.3857 18.4915 94.9652 18.7244C94.5504 18.9517 94.2209 19.2699 93.9766 19.679C93.7379 20.0881 93.6186 20.5597 93.6186 21.0938V28.5H89.9879ZM105.114 28.7557C103.79 28.7557 102.645 28.4744 101.679 27.9119C100.719 27.3437 99.9773 26.554 99.4545 25.5426C98.9318 24.5256 98.6705 23.3466 98.6705 22.0057C98.6705 20.6534 98.9318 19.4716 99.4545 18.4602C99.9773 17.4432 100.719 16.6534 101.679 16.0909C102.645 15.5227 103.79 15.2386 105.114 15.2386C106.438 15.2386 107.58 15.5227 108.54 16.0909C109.506 16.6534 110.25 17.4432 110.773 18.4602C111.295 19.4716 111.557 20.6534 111.557 22.0057C111.557 23.3466 111.295 24.5256 110.773 25.5426C110.25 26.554 109.506 27.3437 108.54 27.9119C107.58 28.4744 106.438 28.7557 105.114 28.7557ZM105.131 25.9432C105.733 25.9432 106.236 25.7727 106.639 25.4318C107.043 25.0852 107.347 24.6136 107.551 24.017C107.761 23.4205 107.866 22.7415 107.866 21.9801C107.866 21.2188 107.761 20.5398 107.551 19.9432C107.347 19.3466 107.043 18.875 106.639 18.5284C106.236 18.1818 105.733 18.0085 105.131 18.0085C104.523 18.0085 104.011 18.1818 103.597 18.5284C103.188 18.875 102.878 19.3466 102.668 19.9432C102.463 20.5398 102.361 21.2188 102.361 21.9801C102.361 22.7415 102.463 23.4205 102.668 24.017C102.878 24.6136 103.188 25.0852 103.597 25.4318C104.011 25.7727 104.523 25.9432 105.131 25.9432ZM118.741 28.7131C117.747 28.7131 116.847 28.4574 116.04 27.946C115.239 27.429 114.602 26.6705 114.131 25.6705C113.665 24.6648 113.432 23.4318 113.432 21.9716C113.432 20.4716 113.673 19.2244 114.156 18.2301C114.639 17.2301 115.281 16.483 116.082 15.9886C116.889 15.4886 117.773 15.2386 118.733 15.2386C119.466 15.2386 120.077 15.3636 120.565 15.6136C121.06 15.858 121.457 16.1648 121.759 16.5341C122.065 16.8977 122.298 17.2557 122.457 17.608H122.568V11.0455H126.19V28.5H122.611V26.4034H122.457C122.287 26.767 122.045 27.1278 121.733 27.4858C121.426 27.8381 121.026 28.1307 120.531 28.3636C120.043 28.5966 119.446 28.7131 118.741 28.7131ZM119.892 25.8239C120.477 25.8239 120.972 25.6648 121.375 25.3466C121.784 25.0227 122.097 24.571 122.312 23.9915C122.534 23.4119 122.645 22.733 122.645 21.9545C122.645 21.1761 122.537 20.5 122.321 19.9261C122.105 19.3523 121.793 18.9091 121.384 18.5966C120.974 18.2841 120.477 18.1278 119.892 18.1278C119.295 18.1278 118.793 18.2898 118.384 18.6136C117.974 18.9375 117.665 19.3864 117.455 19.9602C117.244 20.5341 117.139 21.1989 117.139 21.9545C117.139 22.7159 117.244 23.3892 117.455 23.9744C117.67 24.554 117.98 25.0085 118.384 25.3381C118.793 25.6619 119.295 25.8239 119.892 25.8239ZM137.57 22.9261V15.4091H141.201V28.5H137.715V26.1222H137.579C137.283 26.8892 136.792 27.5057 136.104 27.9716C135.423 28.4375 134.59 28.6705 133.607 28.6705C132.732 28.6705 131.962 28.4716 131.298 28.0739C130.633 27.6761 130.113 27.1108 129.738 26.3778C129.369 25.6449 129.181 24.767 129.175 23.7443V15.4091H132.806V23.0966C132.812 23.8693 133.019 24.4801 133.428 24.929C133.837 25.3778 134.386 25.6023 135.073 25.6023C135.511 25.6023 135.92 25.5028 136.3 25.304C136.681 25.0994 136.988 24.7983 137.221 24.4006C137.46 24.0028 137.576 23.5114 137.57 22.9261ZM150.02 28.7557C148.679 28.7557 147.526 28.4716 146.56 27.9034C145.599 27.3295 144.861 26.5341 144.344 25.517C143.832 24.5 143.577 23.3295 143.577 22.0057C143.577 20.6648 143.835 19.4886 144.352 18.4773C144.875 17.4602 145.616 16.6676 146.577 16.0994C147.537 15.5256 148.679 15.2386 150.003 15.2386C151.145 15.2386 152.145 15.446 153.003 15.8608C153.861 16.2756 154.54 16.858 155.04 17.608C155.54 18.358 155.815 19.2386 155.866 20.25H152.44C152.344 19.5966 152.088 19.071 151.673 18.6733C151.264 18.2699 150.727 18.0682 150.062 18.0682C149.5 18.0682 149.009 18.2216 148.588 18.5284C148.173 18.8295 147.849 19.2699 147.616 19.8494C147.384 20.429 147.267 21.1307 147.267 21.9545C147.267 22.7898 147.381 23.5 147.608 24.0852C147.841 24.6705 148.168 25.1165 148.588 25.4233C149.009 25.7301 149.5 25.8835 150.062 25.8835C150.477 25.8835 150.849 25.7983 151.179 25.6278C151.514 25.4574 151.79 25.2102 152.006 24.8864C152.227 24.5568 152.372 24.1619 152.44 23.7017H155.866C155.81 24.7017 155.537 25.5824 155.048 26.3438C154.565 27.0994 153.898 27.6903 153.045 28.1165C152.193 28.5426 151.185 28.7557 150.02 28.7557ZM165.154 15.4091V18.1364H157.271V15.4091H165.154ZM159.06 12.2727H162.691V24.4773C162.691 24.8125 162.742 25.0739 162.844 25.2614C162.947 25.4432 163.089 25.571 163.271 25.6449C163.458 25.7187 163.674 25.7557 163.918 25.7557C164.089 25.7557 164.259 25.7415 164.43 25.7131C164.6 25.679 164.731 25.6534 164.822 25.6364L165.393 28.3381C165.211 28.3949 164.955 28.4602 164.626 28.5341C164.296 28.6136 163.896 28.6619 163.424 28.679C162.549 28.7131 161.782 28.5966 161.123 28.3295C160.469 28.0625 159.961 27.6477 159.597 27.0852C159.234 26.5227 159.055 25.8125 159.06 24.9545V12.2727ZM167.869 28.5V11.0455H171.559V25.4574H179.042V28.5H167.869ZM187.332 28.7557C186.009 28.7557 184.864 28.4744 183.898 27.9119C182.938 27.3437 182.196 26.554 181.673 25.5426C181.151 24.5256 180.889 23.3466 180.889 22.0057C180.889 20.6534 181.151 19.4716 181.673 18.4602C182.196 17.4432 182.938 16.6534 183.898 16.0909C184.864 15.5227 186.009 15.2386 187.332 15.2386C188.656 15.2386 189.798 15.5227 190.759 16.0909C191.724 16.6534 192.469 17.4432 192.991 18.4602C193.514 19.4716 193.776 20.6534 193.776 22.0057C193.776 23.3466 193.514 24.5256 192.991 25.5426C192.469 26.554 191.724 27.3437 190.759 27.9119C189.798 28.4744 188.656 28.7557 187.332 28.7557ZM187.349 25.9432C187.952 25.9432 188.455 25.7727 188.858 25.4318C189.261 25.0852 189.565 24.6136 189.77 24.017C189.98 23.4205 190.085 22.7415 190.085 21.9801C190.085 21.2188 189.98 20.5398 189.77 19.9432C189.565 19.3466 189.261 18.875 188.858 18.5284C188.455 18.1818 187.952 18.0085 187.349 18.0085C186.741 18.0085 186.23 18.1818 185.815 18.5284C185.406 18.875 185.097 19.3466 184.886 19.9432C184.682 20.5398 184.58 21.2188 184.58 21.9801C184.58 22.7415 184.682 23.4205 184.886 24.017C185.097 24.6136 185.406 25.0852 185.815 25.4318C186.23 25.7727 186.741 25.9432 187.349 25.9432ZM202.034 33.6818C200.858 33.6818 199.849 33.5199 199.009 33.196C198.173 32.8778 197.509 32.4432 197.014 31.892C196.52 31.3409 196.199 30.7216 196.051 30.0341L199.409 29.5824C199.511 29.8438 199.673 30.0881 199.895 30.3153C200.116 30.5426 200.409 30.7244 200.773 30.8608C201.142 31.0028 201.591 31.0739 202.119 31.0739C202.909 31.0739 203.56 30.8807 204.071 30.4943C204.588 30.1136 204.847 29.4744 204.847 28.5767V26.1818H204.693C204.534 26.5455 204.295 26.8892 203.977 27.2131C203.659 27.5369 203.25 27.8011 202.75 28.0057C202.25 28.2102 201.653 28.3125 200.96 28.3125C199.977 28.3125 199.082 28.0852 198.276 27.6307C197.474 27.1705 196.835 26.4687 196.358 25.5256C195.886 24.5767 195.651 23.3778 195.651 21.929C195.651 20.446 195.892 19.2074 196.375 18.2131C196.858 17.2187 197.5 16.4744 198.301 15.9801C199.108 15.4858 199.991 15.2386 200.952 15.2386C201.685 15.2386 202.298 15.3636 202.793 15.6136C203.287 15.858 203.685 16.1648 203.986 16.5341C204.293 16.8977 204.528 17.2557 204.693 17.608H204.83V15.4091H208.435V28.6278C208.435 29.7415 208.162 30.6733 207.616 31.4233C207.071 32.1733 206.315 32.7358 205.349 33.1108C204.389 33.4915 203.284 33.6818 202.034 33.6818ZM202.111 25.5852C202.696 25.5852 203.19 25.4403 203.594 25.1506C204.003 24.8551 204.315 24.4347 204.531 23.8892C204.753 23.3381 204.864 22.679 204.864 21.9119C204.864 21.1449 204.756 20.4801 204.54 19.9176C204.324 19.3494 204.011 18.9091 203.602 18.5966C203.193 18.2841 202.696 18.1278 202.111 18.1278C201.514 18.1278 201.011 18.2898 200.602 18.6136C200.193 18.9318 199.884 19.375 199.673 19.9432C199.463 20.5114 199.358 21.1676 199.358 21.9119C199.358 22.6676 199.463 23.321 199.673 23.8722C199.889 24.4176 200.199 24.8409 200.602 25.142C201.011 25.4375 201.514 25.5852 202.111 25.5852ZM217.239 28.7557C215.915 28.7557 214.77 28.4744 213.804 27.9119C212.844 27.3437 212.102 26.554 211.58 25.5426C211.057 24.5256 210.795 23.3466 210.795 22.0057C210.795 20.6534 211.057 19.4716 211.58 18.4602C212.102 17.4432 212.844 16.6534 213.804 16.0909C214.77 15.5227 215.915 15.2386 217.239 15.2386C218.562 15.2386 219.705 15.5227 220.665 16.0909C221.631 16.6534 222.375 17.4432 222.898 18.4602C223.42 19.4716 223.682 20.6534 223.682 22.0057C223.682 23.3466 223.42 24.5256 222.898 25.5426C222.375 26.554 221.631 27.3437 220.665 27.9119C219.705 28.4744 218.562 28.7557 217.239 28.7557ZM217.256 25.9432C217.858 25.9432 218.361 25.7727 218.764 25.4318C219.168 25.0852 219.472 24.6136 219.676 24.017C219.886 23.4205 219.991 22.7415 219.991 21.9801C219.991 21.2188 219.886 20.5398 219.676 19.9432C219.472 19.3466 219.168 18.875 218.764 18.5284C218.361 18.1818 217.858 18.0085 217.256 18.0085C216.648 18.0085 216.136 18.1818 215.722 18.5284C215.313 18.875 215.003 19.3466 214.793 19.9432C214.588 20.5398 214.486 21.2188 214.486 21.9801C214.486 22.7415 214.588 23.4205 214.793 24.017C215.003 24.6136 215.313 25.0852 215.722 25.4318C216.136 25.7727 216.648 25.9432 217.256 25.9432Z" fill="#4B3F1A"/>
</g>
<defs>
<clipPath id="clip0_5_8">
<rect width="225" height="40" fill="white"/>
</clipPath>
</defs>
</svg>
