<svg width="227" height="40" viewBox="0 0 227 40" fill="none" xmlns="http://www.w3.org/2000/svg">
<g clip-path="url(#clip0_5_8)">
<g style="mix-blend-mode:multiply">
<circle cx="20" cy="20" r="20" fill="#61C551"/>
</g>
<g style="mix-blend-mode:multiply">
<circle cx="45" cy="20" r="20" fill="#C55151"/>
</g>
<path d="M76.517 28.5V11.0455H83.4034C84.7273 11.0455 85.8551 11.2983 86.7869 11.804C87.7188 12.304 88.429 13 88.9176 13.892C89.4119 14.7784 89.6591 15.8011 89.6591 16.9602C89.6591 18.1193 89.4091 19.142 88.9091 20.0284C88.4091 20.9148 87.6847 21.6051 86.7358 22.0994C85.7926 22.5937 84.6506 22.8409 83.3097 22.8409H78.9205V19.8835H82.7131C83.4233 19.8835 84.0085 19.7614 84.4688 19.517C84.9347 19.267 85.2813 18.9233 85.5085 18.4858C85.7415 18.0426 85.858 17.5341 85.858 16.9602C85.858 16.3807 85.7415 15.875 85.5085 15.4432C85.2813 15.0057 84.9347 14.6676 84.4688 14.429C84.0028 14.1847 83.4119 14.0625 82.696 14.0625H80.2074V28.5H76.517ZM91.9879 28.5V15.4091H95.5078V17.6932H95.6442C95.8828 16.8807 96.2834 16.267 96.8459 15.8523C97.4084 15.4318 98.0561 15.2216 98.7891 15.2216C98.9709 15.2216 99.1669 15.233 99.3771 15.2557C99.5874 15.2784 99.772 15.3097 99.9311 15.3494V18.571C99.7607 18.5199 99.5249 18.4744 99.2237 18.4347C98.9226 18.3949 98.647 18.375 98.397 18.375C97.8629 18.375 97.3857 18.4915 96.9652 18.7244C96.5504 18.9517 96.2209 19.2699 95.9766 19.679C95.7379 20.0881 95.6186 20.5597 95.6186 21.0938V28.5H91.9879ZM107.114 28.7557C105.79 28.7557 104.645 28.4744 103.679 27.9119C102.719 27.3437 101.977 26.554 101.455 25.5426C100.932 24.5256 100.67 23.3466 100.67 22.0057C100.67 20.6534 100.932 19.4716 101.455 18.4602C101.977 17.4432 102.719 16.6534 103.679 16.0909C104.645 15.5227 105.79 15.2386 107.114 15.2386C108.438 15.2386 109.58 15.5227 110.54 16.0909C111.506 16.6534 112.25 17.4432 112.773 18.4602C113.295 19.4716 113.557 20.6534 113.557 22.0057C113.557 23.3466 113.295 24.5256 112.773 25.5426C112.25 26.554 111.506 27.3437 110.54 27.9119C109.58 28.4744 108.438 28.7557 107.114 28.7557ZM107.131 25.9432C107.733 25.9432 108.236 25.7727 108.639 25.4318C109.043 25.0852 109.347 24.6136 109.551 24.017C109.761 23.4205 109.866 22.7415 109.866 21.9801C109.866 21.2188 109.761 20.5398 109.551 19.9432C109.347 19.3466 109.043 18.875 108.639 18.5284C108.236 18.1818 107.733 18.0085 107.131 18.0085C106.523 18.0085 106.011 18.1818 105.597 18.5284C105.188 18.875 104.878 19.3466 104.668 19.9432C104.463 20.5398 104.361 21.2188 104.361 21.9801C104.361 22.7415 104.463 23.4205 104.668 24.017C104.878 24.6136 105.188 25.0852 105.597 25.4318C106.011 25.7727 106.523 25.9432 107.131 25.9432ZM120.741 28.7131C119.747 28.7131 118.847 28.4574 118.04 27.946C117.239 27.429 116.602 26.6705 116.131 25.6705C115.665 24.6648 115.432 23.4318 115.432 21.9716C115.432 20.4716 115.673 19.2244 116.156 18.2301C116.639 17.2301 117.281 16.483 118.082 15.9886C118.889 15.4886 119.773 15.2386 120.733 15.2386C121.466 15.2386 122.077 15.3636 122.565 15.6136C123.06 15.858 123.457 16.1648 123.759 16.5341C124.065 16.8977 124.298 17.2557 124.457 17.608H124.568V11.0455H128.19V28.5H124.611V26.4034H124.457C124.287 26.767 124.045 27.1278 123.733 27.4858C123.426 27.8381 123.026 28.1307 122.531 28.3636C122.043 28.5966 121.446 28.7131 120.741 28.7131ZM121.892 25.8239C122.477 25.8239 122.972 25.6648 123.375 25.3466C123.784 25.0227 124.097 24.571 124.312 23.9915C124.534 23.4119 124.645 22.733 124.645 21.9545C124.645 21.1761 124.537 20.5 124.321 19.9261C124.105 19.3523 123.793 18.9091 123.384 18.5966C122.974 18.2841 122.477 18.1278 121.892 18.1278C121.295 18.1278 120.793 18.2898 120.384 18.6136C119.974 18.9375 119.665 19.3864 119.455 19.9602C119.244 20.5341 119.139 21.1989 119.139 21.9545C119.139 22.7159 119.244 23.3892 119.455 23.9744C119.67 24.554 119.98 25.0085 120.384 25.3381C120.793 25.6619 121.295 25.8239 121.892 25.8239ZM139.57 22.9261V15.4091H143.201V28.5H139.715V26.1222H139.579C139.283 26.8892 138.792 27.5057 138.104 27.9716C137.423 28.4375 136.59 28.6705 135.607 28.6705C134.732 28.6705 133.962 28.4716 133.298 28.0739C132.633 27.6761 132.113 27.1108 131.738 26.3778C131.369 25.6449 131.181 24.767 131.175 23.7443V15.4091H134.806V23.0966C134.812 23.8693 135.019 24.4801 135.428 24.929C135.837 25.3778 136.386 25.6023 137.073 25.6023C137.511 25.6023 137.92 25.5028 138.3 25.304C138.681 25.0994 138.988 24.7983 139.221 24.4006C139.46 24.0028 139.576 23.5114 139.57 22.9261ZM152.02 28.7557C150.679 28.7557 149.526 28.4716 148.56 27.9034C147.599 27.3295 146.861 26.5341 146.344 25.517C145.832 24.5 145.577 23.3295 145.577 22.0057C145.577 20.6648 145.835 19.4886 146.352 18.4773C146.875 17.4602 147.616 16.6676 148.577 16.0994C149.537 15.5256 150.679 15.2386 152.003 15.2386C153.145 15.2386 154.145 15.446 155.003 15.8608C155.861 16.2756 156.54 16.858 157.04 17.608C157.54 18.358 157.815 19.2386 157.866 20.25H154.44C154.344 19.5966 154.088 19.071 153.673 18.6733C153.264 18.2699 152.727 18.0682 152.062 18.0682C151.5 18.0682 151.009 18.2216 150.588 18.5284C150.173 18.8295 149.849 19.2699 149.616 19.8494C149.384 20.429 149.267 21.1307 149.267 21.9545C149.267 22.7898 149.381 23.5 149.608 24.0852C149.841 24.6705 150.168 25.1165 150.588 25.4233C151.009 25.7301 151.5 25.8835 152.062 25.8835C152.477 25.8835 152.849 25.7983 153.179 25.6278C153.514 25.4574 153.79 25.2102 154.006 24.8864C154.227 24.5568 154.372 24.1619 154.44 23.7017H157.866C157.81 24.7017 157.537 25.5824 157.048 26.3438C156.565 27.0994 155.898 27.6903 155.045 28.1165C154.193 28.5426 153.185 28.7557 152.02 28.7557ZM167.154 15.4091V18.1364H159.271V15.4091H167.154ZM161.06 12.2727H164.691V24.4773C164.691 24.8125 164.742 25.0739 164.844 25.2614C164.947 25.4432 165.089 25.571 165.271 25.6449C165.458 25.7187 165.674 25.7557 165.918 25.7557C166.089 25.7557 166.259 25.7415 166.43 25.7131C166.6 25.679 166.731 25.6534 166.822 25.6364L167.393 28.3381C167.211 28.3949 166.955 28.4602 166.626 28.5341C166.296 28.6136 165.896 28.6619 165.424 28.679C164.549 28.7131 163.782 28.5966 163.123 28.3295C162.469 28.0625 161.961 27.6477 161.597 27.0852C161.234 26.5227 161.055 25.8125 161.06 24.9545V12.2727ZM169.869 28.5V11.0455H173.559V25.4574H181.042V28.5H169.869ZM189.332 28.7557C188.009 28.7557 186.864 28.4744 185.898 27.9119C184.938 27.3437 184.196 26.554 183.673 25.5426C183.151 24.5256 182.889 23.3466 182.889 22.0057C182.889 20.6534 183.151 19.4716 183.673 18.4602C184.196 17.4432 184.938 16.6534 185.898 16.0909C186.864 15.5227 188.009 15.2386 189.332 15.2386C190.656 15.2386 191.798 15.5227 192.759 16.0909C193.724 16.6534 194.469 17.4432 194.991 18.4602C195.514 19.4716 195.776 20.6534 195.776 22.0057C195.776 23.3466 195.514 24.5256 194.991 25.5426C194.469 26.554 193.724 27.3437 192.759 27.9119C191.798 28.4744 190.656 28.7557 189.332 28.7557ZM189.349 25.9432C189.952 25.9432 190.455 25.7727 190.858 25.4318C191.261 25.0852 191.565 24.6136 191.77 24.017C191.98 23.4205 192.085 22.7415 192.085 21.9801C192.085 21.2188 191.98 20.5398 191.77 19.9432C191.565 19.3466 191.261 18.875 190.858 18.5284C190.455 18.1818 189.952 18.0085 189.349 18.0085C188.741 18.0085 188.23 18.1818 187.815 18.5284C187.406 18.875 187.097 19.3466 186.886 19.9432C186.682 20.5398 186.58 21.2188 186.58 21.9801C186.58 22.7415 186.682 23.4205 186.886 24.017C187.097 24.6136 187.406 25.0852 187.815 25.4318C188.23 25.7727 188.741 25.9432 189.349 25.9432ZM204.034 33.6818C202.858 33.6818 201.849 33.5199 201.009 33.196C200.173 32.8778 199.509 32.4432 199.014 31.892C198.52 31.3409 198.199 30.7216 198.051 30.0341L201.409 29.5824C201.511 29.8438 201.673 30.0881 201.895 30.3153C202.116 30.5426 202.409 30.7244 202.773 30.8608C203.142 31.0028 203.591 31.0739 204.119 31.0739C204.909 31.0739 205.56 30.8807 206.071 30.4943C206.588 30.1136 206.847 29.4744 206.847 28.5767V26.1818H206.693C206.534 26.5455 206.295 26.8892 205.977 27.2131C205.659 27.5369 205.25 27.8011 204.75 28.0057C204.25 28.2102 203.653 28.3125 202.96 28.3125C201.977 28.3125 201.082 28.0852 200.276 27.6307C199.474 27.1705 198.835 26.4687 198.358 25.5256C197.886 24.5767 197.651 23.3778 197.651 21.929C197.651 20.446 197.892 19.2074 198.375 18.2131C198.858 17.2187 199.5 16.4744 200.301 15.9801C201.108 15.4858 201.991 15.2386 202.952 15.2386C203.685 15.2386 204.298 15.3636 204.793 15.6136C205.287 15.858 205.685 16.1648 205.986 16.5341C206.293 16.8977 206.528 17.2557 206.693 17.608H206.83V15.4091H210.435V28.6278C210.435 29.7415 210.162 30.6733 209.616 31.4233C209.071 32.1733 208.315 32.7358 207.349 33.1108C206.389 33.4915 205.284 33.6818 204.034 33.6818ZM204.111 25.5852C204.696 25.5852 205.19 25.4403 205.594 25.1506C206.003 24.8551 206.315 24.4347 206.531 23.8892C206.753 23.3381 206.864 22.679 206.864 21.9119C206.864 21.1449 206.756 20.4801 206.54 19.9176C206.324 19.3494 206.011 18.9091 205.602 18.5966C205.193 18.2841 204.696 18.1278 204.111 18.1278C203.514 18.1278 203.011 18.2898 202.602 18.6136C202.193 18.9318 201.884 19.375 201.673 19.9432C201.463 20.5114 201.358 21.1676 201.358 21.9119C201.358 22.6676 201.463 23.321 201.673 23.8722C201.889 24.4176 202.199 24.8409 202.602 25.142C203.011 25.4375 203.514 25.5852 204.111 25.5852ZM219.239 28.7557C217.915 28.7557 216.77 28.4744 215.804 27.9119C214.844 27.3437 214.102 26.554 213.58 25.5426C213.057 24.5256 212.795 23.3466 212.795 22.0057C212.795 20.6534 213.057 19.4716 213.58 18.4602C214.102 17.4432 214.844 16.6534 215.804 16.0909C216.77 15.5227 217.915 15.2386 219.239 15.2386C220.562 15.2386 221.705 15.5227 222.665 16.0909C223.631 16.6534 224.375 17.4432 224.898 18.4602C225.42 19.4716 225.682 20.6534 225.682 22.0057C225.682 23.3466 225.42 24.5256 224.898 25.5426C224.375 26.554 223.631 27.3437 222.665 27.9119C221.705 28.4744 220.562 28.7557 219.239 28.7557ZM219.256 25.9432C219.858 25.9432 220.361 25.7727 220.764 25.4318C221.168 25.0852 221.472 24.6136 221.676 24.017C221.886 23.4205 221.991 22.7415 221.991 21.9801C221.991 21.2188 221.886 20.5398 221.676 19.9432C221.472 19.3466 221.168 18.875 220.764 18.5284C220.361 18.1818 219.858 18.0085 219.256 18.0085C218.648 18.0085 218.136 18.1818 217.722 18.5284C217.313 18.875 217.003 19.3466 216.793 19.9432C216.588 20.5398 216.486 21.2188 216.486 21.9801C216.486 22.7415 216.588 23.4205 216.793 24.017C217.003 24.6136 217.313 25.0852 217.722 25.4318C218.136 25.7727 218.648 25.9432 219.256 25.9432Z" fill="#4B3F1A"/>
</g>
<defs>
<clipPath id="clip0_5_8">
<rect width="227" height="40" fill="white"/>
</clipPath>
</defs>
</svg>
